<?xml version="1.0" encoding="UTF-8" standalone="no"?>
<!-- Created with Inkscape (http://www.inkscape.org/) -->

<svg
   width="300mm"
   height="300mm"
   viewBox="0 0 300 300"
   version="1.1"
   id="svg1"
   xmlns="http://www.w3.org/2000/svg"
   xmlns:svg="http://www.w3.org/2000/svg">
  <defs
     id="defs1" />
  <g
     id="layer1">
    <path
       style="font-size:245.872px;font-family:'Linux Libertine';-inkscape-font-specification:'Linux Libertine';text-align:center;text-anchor:middle;stroke-width:0.368807"
       d="m 152.46113,140.81581 q 15.00683,0 18.36836,-2.88131 3.48159,-3.00137 3.96181,-13.92634 0.96043,-1.20055 3.9618,-1.20055 3.00137,0 4.20191,1.20055 -0.48021,14.76672 -0.48021,21.24968 0,4.44202 0.48021,21.60984 -1.20054,1.20055 -4.20191,1.20055 -2.88131,0 -3.9618,-1.20055 -0.48022,-6.60301 -1.44066,-9.48432 -0.96044,-2.88131 -5.88268,-5.0423 -4.92224,-2.28104 -15.00683,-2.28104 h -22.33018 v 59.30702 q 0,10.56481 8.764,10.56481 h 33.49525 q 23.41067,0 32.17466,-32.17466 4.44202,-0.96043 8.64394,1.20055 -3.00137,19.44886 -9.12416,41.0587 -19.68897,-0.48022 -31.45433,-0.48022 h -52.82406 q -19.929077,0.24011 -32.0546,0.48022 -0.960437,-0.96043 -0.960437,-3.84175 0,-3.00136 0.960437,-4.20191 13.80629,-0.48022 17.64804,-4.08186 3.84175,-3.60164 3.84175,-18.36837 v -98.56489 q 0,-14.766729 -3.84175,-18.248315 -3.84175,-3.60164 -17.64804,-4.081859 -0.960437,-0.960438 -0.960437,-3.961805 0,-3.001367 0.960437,-4.201914 l 31.81449,0.480219 h 62.66855 q 6.3629,0 12.00547,-0.960437 0.96043,0 0.96043,0.720328 1.92088,8.403828 5.52252,35.656243 -3.96181,1.92087 -8.16372,1.20054 -4.68213,-14.766721 -9.84448,-20.769456 -5.16236,-6.002734 -17.88815,-6.002734 h -25.93181 q -4.20192,0 -6.48296,3.121422 -2.28104,3.001367 -2.28104,7.6835 v 49.222418 z"
       id="text1"
       aria-label="E" />
  </g>
</svg>
